<?xml version="1.0" encoding="UTF-8"?>
<!DOCTYPE svg PUBLIC "-//W3C//DTD SVG 1.1//EN" "http://www.w3.org/Graphics/SVG/1.1/DTD/svg11.dtd">
<!-- Creator: CorelDRAW X7 -->
<svg xmlns="http://www.w3.org/2000/svg" xml:space="preserve" width="8.4666mm" height="3.4712mm" version="1.1" style="shape-rendering:geometricPrecision; text-rendering:geometricPrecision; image-rendering:optimizeQuality; fill-rule:evenodd; clip-rule:evenodd"
viewBox="0 0 847 347"
 xmlns:xlink="http://www.w3.org/1999/xlink">
 <defs>
  <style type="text/css">
   <![CDATA[
    .fil2 {fill:#FEFEFE}
    .fil1 {fill:url(#id4)}
    .fil0 {fill:url(#id5)}
   ]]>
  </style>
    <clipPath id="id0">
     <path d="M16 -11l373 0 0 326 -373 0 0 -326z"/>
    </clipPath>
    <clipPath id="id1">
     <path d="M0 238l840 0 7 120 -841 0 -6 -120z"/>
    </clipPath>
    <clipPath id="id2">
     <path d="M395 138l366 0 0 83 -366 0 0 -83z"/>
    </clipPath>
    <clipPath id="id3">
     <path d="M409 33l271 0 0 107 -271 0 0 -107z"/>
    </clipPath>
  <linearGradient id="id4" gradientUnits="userSpaceOnUse" x1="8.01" y1="296.39" x2="833.23" y2="296.39">
   <stop offset="0" style="stop-opacity:1; stop-color:#F7A905"/>
   <stop offset="1" style="stop-opacity:1; stop-color:#F6C911"/>
  </linearGradient>
  <radialGradient id="id5" gradientUnits="userSpaceOnUse" gradientTransform="matrix(0.432109 1.33657 -1.8115 0.530836 486 -61)" cx="126.29" cy="228.87" r="89.46" fx="126.29" fy="228.87">
   <stop offset="0" style="stop-opacity:1; stop-color:#F7A707"/>
   <stop offset="0.45098" style="stop-opacity:1; stop-color:#F7AB05"/>
   <stop offset="1" style="stop-opacity:1; stop-color:#F6C911"/>
  </radialGradient>
 </defs>
 <g id="Layer_x0020_1">
  <metadata id="CorelCorpID_0Corel-Layer"/>
  <g id="_1991968827040">
   <g style="clip-path:url(#id0)">
    <image x="16" y="-11" width="374" height="326" xlink:href="logo1_Images\logo1_ImgID1.png"/>
   </g>
  </g>
  <path class="fil0" d="M235 24c-2,-1 -4,-2 -7,-3 -3,0 -5,-1 -9,-1 -3,0 -17,2 -19,4 4,2 13,-1 16,3 -3,1 -5,2 -7,2 -7,-1 -20,1 -24,4 3,1 12,-1 16,2 0,1 -1,2 -2,3 -3,2 -6,1 -14,2 -5,1 -16,3 -20,5 4,2 18,-1 23,3l-13 14c-4,3 -10,5 -16,3 -1,0 -2,-1 -3,-2l0 0c0,-1 0,-1 -1,-1 0,7 6,14 10,17 10,7 16,1 20,3 -3,5 -24,14 -32,1 -2,-4 -2,-10 -4,-13 -3,2 -8,32 -1,44 4,6 12,2 13,2 -2,3 -4,3 -4,6 -1,6 4,7 9,10 2,1 4,2 6,3 7,5 -2,8 -7,8 -8,-1 -9,-2 -13,-6 2,4 6,10 9,12 4,2 8,4 13,5 20,2 17,-10 23,-16 0,3 -2,15 -3,18 -2,6 -5,11 -7,17 -4,15 -4,20 -16,31 -10,8 -19,16 -29,24 -8,7 -19,18 -20,29 -2,0 -5,-1 -6,-2 -1,-4 -3,-8 -2,-12 1,-2 6,-6 9,-6 5,-2 7,-3 9,-6 2,-3 3,-6 4,-10 3,-13 -4,-30 -9,-42 -1,-2 -2,-4 -3,-5l0 1c-1,1 0,4 0,6 0,2 0,4 1,7 -2,-2 -4,-6 -6,-8 -3,-5 -8,-8 -12,-12 -13,-9 -23,-13 -39,-14 0,0 -1,0 -1,1l-1 0c3,2 8,3 12,5 2,2 5,4 6,7 1,1 2,3 1,4 0,-1 -1,-1 -2,-2 -5,-1 -16,-6 -20,-4 2,2 3,0 8,6 4,4 10,14 5,20 -2,2 -8,2 -12,4 1,1 2,0 4,0 2,0 3,0 4,0 3,0 3,0 4,1 1,1 2,2 2,4 4,11 -20,16 -28,15 -3,0 -4,-1 -7,-2 -1,-2 -4,-5 -6,-4 1,5 9,15 14,19 1,1 2,2 3,2 4,3 4,4 5,9 -4,0 -3,-1 -9,-1 -3,1 -8,1 -10,3 3,2 4,-1 10,4 14,13 6,24 29,28 6,1 8,3 17,3 6,1 8,-1 14,-2 5,-1 9,-1 14,-1 5,10 7,14 17,21 1,0 51,-17 61,-18 2,-4 12,-14 16,-16 25,-20 33,-18 46,-53 1,-2 1,-3 2,-5 1,-2 1,-4 2,-6 1,-3 3,-5 4,-7 0,-1 1,-2 1,-3 5,1 5,0 10,-2 7,-4 15,-6 22,-9 4,-1 13,-5 13,1 0,8 -2,17 -6,24 -1,1 -2,2 -3,3 -1,3 1,3 2,5 -1,3 -1,3 -1,6 -4,1 -5,-2 -8,1 -1,2 -3,4 -3,7 0,5 0,14 3,18 4,0 7,-8 10,-11 5,-3 3,-7 7,-13 1,0 2,-2 3,-2 3,-3 4,-5 4,-10 1,-8 0,-8 2,-16 1,-3 2,-5 3,-7 1,-3 0,-5 2,-7 4,-4 1,-12 -3,-15 -2,-2 -5,-1 -8,-1 -3,0 -5,0 -8,0 -4,0 -15,1 -17,0 5,-4 6,-5 8,-10 2,-4 3,-8 8,-11 4,-3 10,-4 14,-1l7 5c2,1 3,2 4,3 3,4 6,6 10,8 3,2 3,0 4,0 3,2 -2,4 -2,7 0,4 6,11 10,13 10,4 8,1 8,-3 -1,-5 1,-7 -1,-12 -2,-3 -3,-5 -5,-6 -3,-2 -1,-3 -3,-7 -2,-4 -7,-5 -11,-8 -2,-1 -4,-2 -6,-4 -1,-1 -3,-2 -5,-4 -4,-3 -6,-8 -10,-9 -7,-1 -10,-2 -15,3 -4,3 -7,7 -13,8 -7,1 -8,5 -14,7 -2,-7 -6,-12 -11,-15 -3,-3 -7,-5 -11,-6 -7,-3 -11,-9 -15,-16 -4,-8 -5,-12 -6,-21 2,1 2,2 5,2 4,0 4,0 7,2 3,3 9,8 12,9 1,1 2,1 3,2 1,3 0,6 3,6 2,0 3,-1 4,0 4,0 5,2 10,-2 4,-3 2,-3 3,-6 2,-6 4,-4 -2,-11 -4,-4 -10,-13 -11,-18 0,-1 0,-13 1,-15 1,2 4,8 5,8 0,-3 -1,-8 -3,-11 -2,-3 -4,-4 -6,-7 5,1 6,8 10,11l0 -2c-1,-3 -2,-5 -2,-8 0,1 3,4 5,6 1,1 3,5 5,5 -2,-11 -10,-23 -22,-24 1,-3 6,-7 5,-11 -2,1 -4,4 -6,5 -2,2 -5,3 -8,4 1,-2 2,-3 2,-5 -2,0 -6,6 -9,7 0,-4 -1,-12 -4,-16 -1,3 3,16 -7,13 -1,-3 -5,-10 -7,-12 1,6 5,9 0,13z"/>
  <g id="_1991968824384">
   <g style="clip-path:url(#id1)">
    <image x="0" y="238" width="847" height="120" xlink:href="logo1_Images\logo1_ImgID2.png"/>
   </g>
  </g>
  <path class="fil1" d="M8 347c149,-134 628,-126 792,-29 32,19 33,25 33,25 0,0 -59,-31 -155,-52 -161,-37 -423,-59 -670,56z"/>
  <g id="_1991968825664">
   <g style="clip-path:url(#id2)">
    <image x="395" y="138" width="366.43" height="83.41" xlink:href="logo1_Images\logo1_ImgID3.png"/>
   </g>
  </g>
  <path class="fil2" d="M400 216l23 -70 9 0 24 70 -9 0 -5 -15 -28 0 -4 15 -10 0zm17 -22l22 0 -11 -36 -11 36zm49 -46l0 38 9 0 18 -22 11 0 -22 26 22 26 -11 0 -18 -21 -9 0 0 21 -8 0 0 -68 8 0zm38 42c0,-3 1,-7 2,-10 1,-3 3,-6 5,-8 2,-2 5,-4 8,-6 3,-1 6,-2 9,-2 4,0 8,1 11,3 3,2 6,5 8,8l0 -11 9 0 0 52 -9 0 0 -10c-2,3 -5,5 -8,7 -3,2 -7,3 -11,3 -3,0 -6,-1 -9,-2 -3,-1 -6,-3 -8,-6 -2,-2 -4,-5 -5,-8 -1,-3 -2,-6 -2,-10zm9 0c0,3 1,5 2,7 0,2 2,4 3,5 2,2 3,3 5,4 3,1 5,1 7,1 2,0 5,0 7,-1 2,-1 4,-2 5,-4 2,-1 3,-3 4,-5 1,-2 1,-4 1,-7 0,-2 0,-4 -1,-6 -1,-2 -2,-4 -4,-6 -1,-1 -3,-3 -5,-3 -2,-1 -5,-2 -7,-2 -2,0 -4,1 -7,2 -2,0 -3,2 -5,3 -1,2 -3,4 -3,6 -1,2 -2,4 -2,6zm49 0c0,-3 0,-7 2,-10 1,-3 3,-6 5,-8 2,-2 4,-4 7,-6 3,-1 6,-2 10,-2 4,0 7,1 11,3 3,2 5,4 8,8l0 -27 8 0 0 68 -8 0 0 -10c-3,3 -5,5 -8,7 -4,2 -7,3 -11,3 -4,0 -7,-1 -10,-2 -3,-1 -5,-3 -7,-6 -2,-2 -4,-5 -5,-8 -2,-3 -2,-6 -2,-10zm9 0c0,3 0,5 1,7 1,2 2,4 4,5 1,2 3,3 5,4 2,1 4,1 7,1 2,0 4,0 6,-1 2,-1 4,-2 6,-4 1,-1 2,-3 3,-5 1,-2 2,-4 2,-7l0 0c-1,-3 -1,-5 -2,-7 -1,-2 -2,-3 -4,-5 -1,-1 -3,-3 -5,-4 -2,0 -4,-1 -6,-1 -3,0 -5,1 -7,2 -2,0 -4,2 -5,3 -2,2 -3,4 -4,6 -1,2 -1,4 -1,6zm97 14c-3,4 -7,7 -10,9 -4,2 -9,3 -13,3 -4,0 -7,-1 -10,-2 -3,-1 -6,-3 -8,-6 -3,-2 -4,-5 -6,-8 -1,-3 -2,-6 -2,-10 0,-3 1,-7 2,-10 2,-3 3,-6 6,-8 2,-2 5,-4 8,-6 3,-1 6,-2 10,-2 4,0 9,1 13,3 4,2 7,6 10,10l-30 28c1,1 2,2 4,2 2,0 3,0 5,0 3,0 6,-1 8,-3 3,-1 5,-3 7,-6l6 6zm-41 -15c0,3 1,5 2,7 0,2 2,4 3,5l24 -23c-1,-2 -3,-3 -5,-4 -2,-1 -5,-1 -7,-1 -2,0 -4,0 -6,1 -2,1 -4,2 -5,4 -2,1 -3,3 -4,5 -1,2 -1,4 -2,6zm83 27l-9 0 0 -34c0,-2 0,-3 -1,-5 -1,-1 -2,-2 -3,-3 -2,-1 -3,-1 -5,-1 -1,0 -3,0 -4,1 -2,0 -3,1 -4,3 -1,1 -2,4 -2,7l0 32 -9 0 0 -52 9 0 0 7c1,-2 3,-4 5,-5 2,-1 5,-2 7,-2 4,0 6,1 9,3 2,1 4,3 5,6 1,-3 3,-5 5,-6 3,-2 6,-3 9,-3 2,0 4,1 6,2 2,1 4,2 5,4 2,1 3,3 4,5 0,2 1,5 1,7l0 34 -9 0 0 -34c0,-2 0,-3 -1,-5 -1,-1 -2,-2 -3,-3 -2,-1 -3,-1 -5,-1 -1,0 -3,0 -4,1 -2,0 -3,2 -5,3 -1,2 -1,4 -1,7l0 32zm45 -52l0 52 -9 0 0 -52 9 0zm-10 -15c0,-1 0,-3 1,-4 1,-1 3,-1 4,-1 2,0 3,0 4,1 1,1 2,3 2,4 0,2 -1,3 -2,4 -1,1 -2,2 -4,2 -1,0 -3,-1 -4,-2 -1,-1 -1,-2 -1,-4z"/>
  <g id="_1991968823200">
   <g style="clip-path:url(#id3)">
    <image x="409" y="33" width="271" height="107" xlink:href="logo1_Images\logo1_ImgID4.png"/>
   </g>
  </g>
  <path class="fil2" d="M462 116l0 -24 -36 0 0 24 -10 0 0 -76 10 0 0 42 36 0 0 -42 10 0 0 76 -10 0zm16 -28c0,-4 0,-7 2,-11 1,-3 3,-6 5,-9 3,-2 5,-4 9,-6 3,-1 6,-2 10,-2 4,0 8,1 12,3 3,2 6,5 9,8l0 -11 9 0 0 56 -9 0 0 -11c-3,3 -6,6 -9,8 -4,2 -8,3 -12,3 -4,0 -7,0 -10,-2 -4,-1 -6,-3 -9,-6 -2,-2 -4,-5 -5,-9 -2,-3 -2,-7 -2,-11zm10 0c0,3 0,5 1,7 1,3 2,5 4,6 1,2 3,3 6,4 2,1 4,2 7,2 2,0 5,-1 7,-2 2,-1 4,-2 6,-4 2,-1 3,-3 4,-6 1,-2 1,-4 1,-7 0,-2 0,-5 -1,-7 -1,-2 -2,-4 -4,-6 -2,-2 -4,-3 -6,-4 -2,-1 -5,-1 -7,-1 -3,0 -5,0 -7,1 -3,1 -5,2 -6,4 -2,2 -3,4 -4,6 -1,2 -1,5 -1,7zm60 -28l17 43 16 -43 10 0 -28 73 -10 0 7 -17 -23 -56 11 0zm43 0l5 0 0 -17 10 0 0 17 10 0 0 8 -10 0 0 31c0,3 1,5 2,6 2,2 4,3 7,3l0 8c-6,0 -11,-1 -14,-4 -3,-3 -5,-7 -5,-13l0 -31 -5 0 0 -8zm26 28c0,-4 0,-7 2,-11 1,-3 3,-6 5,-9 3,-2 5,-4 9,-6 3,-1 6,-2 10,-2 4,0 8,1 12,3 3,2 6,5 8,8l0 -11 10 0 0 56 -10 0 0 -11c-2,3 -5,6 -8,8 -4,2 -8,3 -12,3 -4,0 -7,0 -10,-2 -4,-1 -6,-3 -9,-6 -2,-2 -4,-5 -5,-9 -2,-3 -2,-7 -2,-11zm9 0c0,3 1,5 2,7 1,3 2,5 4,6 1,2 3,3 6,4 2,1 4,2 7,2 2,0 5,-1 7,-2 2,-1 4,-2 6,-4 2,-1 3,-3 4,-6 1,-2 1,-4 1,-7 0,-2 0,-5 -1,-7 -1,-2 -2,-4 -4,-6 -2,-2 -4,-3 -6,-4 -2,-1 -5,-1 -7,-1 -3,0 -5,0 -7,1 -3,1 -5,2 -6,4 -2,2 -3,4 -4,6 -1,2 -2,5 -2,7z"/>
 </g>
</svg>
